<svg width="389.746" height="76.955" viewBox="0 0 389.746 76.955" xmlns="http://www.w3.org/2000/svg"><g id="svgGroup" stroke-linecap="round" fill-rule="evenodd" font-size="9pt" stroke="#ffffff00" stroke-width="0.25mm" fill="#ffffff" style="stroke:#ffffff00;stroke-width:0.25mm;fill:#ffffff"><path d="M 49.707 4.59 L 64.99 4.59 L 40.723 75.977 L 24.219 75.977 L 0 4.59 L 15.283 4.59 L 28.711 47.07 Q 28.991 47.952 29.568 50.099 A 280.753 280.753 0 0 1 29.834 51.099 Q 30.615 54.053 31.421 57.349 A 84 84 0 0 1 31.914 59.479 Q 32.327 61.383 32.52 62.793 A 39.86 39.86 0 0 1 32.776 61.183 Q 32.924 60.352 33.123 59.399 A 94.572 94.572 0 0 1 33.569 57.373 A 293.942 293.942 0 0 1 34.326 54.181 A 254.409 254.409 0 0 1 35.083 51.147 A 280.995 280.995 0 0 1 35.425 49.824 Q 35.923 47.921 36.182 47.07 L 49.707 4.59 Z M 69.58 72.656 L 69.58 58.594 A 116.047 116.047 0 0 0 80.127 62.646 Q 85.596 64.453 90.967 64.453 A 23.023 23.023 0 0 0 93.335 64.339 Q 94.494 64.219 95.466 63.972 A 9.938 9.938 0 0 0 96.948 63.477 A 8.645 8.645 0 0 0 98.532 62.602 Q 99.577 61.862 100.195 60.872 A 5.502 5.502 0 0 0 100.244 60.791 A 7.232 7.232 0 0 0 101.239 57.626 A 8.913 8.913 0 0 0 101.27 56.885 A 6.43 6.43 0 0 0 99.463 52.295 A 14.646 14.646 0 0 0 97.625 50.675 Q 96.657 49.949 95.47 49.262 A 28.013 28.013 0 0 0 94.507 48.73 Q 91.357 47.07 87.402 45.166 A 64.461 64.461 0 0 1 84.802 43.866 A 87.68 87.68 0 0 1 81.982 42.31 A 30.581 30.581 0 0 1 76.747 38.486 A 33.97 33.97 0 0 1 76.416 38.184 A 19.27 19.27 0 0 1 72.531 33.107 A 22.31 22.31 0 0 1 72.095 32.251 A 16.263 16.263 0 0 1 70.78 28.149 Q 70.41 26.166 70.41 23.877 A 23.329 23.329 0 0 1 70.991 18.548 A 17.701 17.701 0 0 1 73.34 12.939 A 18.162 18.162 0 0 1 79.995 6.832 A 22.634 22.634 0 0 1 81.714 5.981 Q 86.999 3.635 94.147 3.567 A 45.053 45.053 0 0 1 94.58 3.564 A 43.166 43.166 0 0 1 103.929 4.555 A 39.691 39.691 0 0 1 105.2 4.858 Q 110.254 6.152 115.771 8.594 L 110.889 20.361 A 106.606 106.606 0 0 0 106.77 18.783 Q 104.248 17.879 102.051 17.261 Q 98.145 16.162 94.092 16.162 Q 91.26 16.162 89.258 17.065 Q 87.256 17.969 86.23 19.604 A 6.732 6.732 0 0 0 85.244 22.569 A 8.421 8.421 0 0 0 85.205 23.389 A 7.171 7.171 0 0 0 85.511 25.524 A 5.955 5.955 0 0 0 86.694 27.661 A 10.664 10.664 0 0 0 88.024 28.944 Q 89.31 29.999 91.187 31.006 A 128.754 128.754 0 0 0 93.648 32.29 Q 94.761 32.856 96.019 33.475 A 269.409 269.409 0 0 0 98.682 34.766 Q 103.787 37.182 107.51 39.789 A 42.436 42.436 0 0 1 108.032 40.161 A 21.637 21.637 0 0 1 112.101 43.946 A 18.73 18.73 0 0 1 114.014 46.753 A 15.785 15.785 0 0 1 115.588 50.995 Q 116.113 53.345 116.113 56.152 Q 116.113 62.5 113.037 67.188 A 18.6 18.6 0 0 1 107.005 72.914 A 24.045 24.045 0 0 1 104.077 74.414 Q 98.877 76.658 91.713 76.919 A 52.735 52.735 0 0 1 89.795 76.953 A 53.015 53.015 0 0 1 82.544 76.465 A 46.889 46.889 0 0 1 75.858 75.054 A 43.462 43.462 0 0 1 75.757 75.024 A 40.084 40.084 0 0 1 69.58 72.656 Z M 203.564 60.596 L 203.564 73.291 Q 198.828 75.244 194.238 76.099 Q 189.648 76.953 183.936 76.953 Q 174.732 76.953 168.263 73.778 A 24.649 24.649 0 0 1 165.796 72.388 Q 158.691 67.822 155.273 59.595 A 43.225 43.225 0 0 1 152.557 49.771 A 59.791 59.791 0 0 1 151.855 40.381 Q 151.855 32.275 154.053 25.537 A 35.041 35.041 0 0 1 158.043 17.126 A 31.307 31.307 0 0 1 160.498 13.867 Q 164.746 8.936 170.996 6.25 A 32.426 32.426 0 0 1 179.072 4.008 A 42.77 42.77 0 0 1 185.352 3.564 A 43.658 43.658 0 0 1 196.021 4.907 Q 201.367 6.25 206.25 8.594 L 201.367 20.898 A 80.825 80.825 0 0 0 193.311 17.578 A 25.184 25.184 0 0 0 187.869 16.307 A 22.07 22.07 0 0 0 185.352 16.162 A 19.109 19.109 0 0 0 181.256 16.583 A 15.174 15.174 0 0 0 177.661 17.847 Q 174.316 19.531 172.046 22.705 A 20.728 20.728 0 0 0 169.737 26.939 A 27.193 27.193 0 0 0 168.604 30.371 Q 167.432 34.863 167.432 40.479 A 50.89 50.89 0 0 0 167.742 46.261 Q 168.075 49.168 168.765 51.652 A 27.248 27.248 0 0 0 169.312 53.394 A 19.079 19.079 0 0 0 171.397 57.652 A 14.715 14.715 0 0 0 175.146 61.548 A 14.506 14.506 0 0 0 180.159 63.779 Q 182.151 64.265 184.478 64.341 A 26.766 26.766 0 0 0 185.352 64.355 A 39.859 39.859 0 0 0 194.067 63.379 A 72.349 72.349 0 0 0 198.627 62.195 A 96.775 96.775 0 0 0 203.564 60.596 Z M 312.891 28.369 L 313.379 28.369 A 45.468 45.468 0 0 1 313.225 27.495 Q 312.982 26.044 312.671 23.755 Q 312.256 20.703 312.256 17.48 L 312.256 0 L 327.197 0 L 327.197 75.977 L 315.771 75.977 L 312.891 68.896 L 312.256 68.896 A 18.141 18.141 0 0 1 308.782 72.916 A 20.221 20.221 0 0 1 308.716 72.974 Q 306.592 74.805 303.662 75.879 A 16.735 16.735 0 0 1 300.476 76.685 Q 298.755 76.953 296.777 76.953 A 18.856 18.856 0 0 1 288.495 75.165 Q 284.836 73.404 281.999 69.911 A 23.497 23.497 0 0 1 281.909 69.8 Q 277.623 64.456 276.539 55.365 A 55.714 55.714 0 0 1 276.172 48.779 A 54.036 54.036 0 0 1 276.711 40.872 Q 277.308 36.851 278.563 33.603 A 22.393 22.393 0 0 1 281.982 27.563 A 18.407 18.407 0 0 1 295.3 20.436 A 23.082 23.082 0 0 1 297.168 20.361 Q 301.074 20.361 304.053 21.436 A 18.186 18.186 0 0 1 307.422 23.041 A 15.41 15.41 0 0 1 309.204 24.316 A 19.254 19.254 0 0 1 312.891 28.369 Z M 389.746 45.166 L 389.746 52.393 L 354.541 52.393 A 18.938 18.938 0 0 0 355.142 56.57 Q 355.957 59.608 357.845 61.764 A 11.882 11.882 0 0 0 358.325 62.28 Q 361.865 65.869 368.164 65.869 A 44.208 44.208 0 0 0 373.764 65.529 A 35.045 35.045 0 0 0 377.734 64.795 A 45.676 45.676 0 0 0 383.543 62.922 A 55.188 55.188 0 0 0 386.67 61.572 L 386.67 73.096 A 35.542 35.542 0 0 1 378.198 76.025 A 39.199 39.199 0 0 1 374.298 76.626 Q 372.374 76.83 370.192 76.907 A 77.303 77.303 0 0 1 367.48 76.953 Q 359.277 76.953 352.954 73.926 Q 346.631 70.898 343.042 64.697 Q 339.846 59.174 339.496 51.095 A 46.799 46.799 0 0 1 339.453 49.072 A 46.798 46.798 0 0 1 339.91 42.344 Q 340.433 38.747 341.556 35.741 A 25.037 25.037 0 0 1 342.7 33.13 A 23.315 23.315 0 0 1 347.311 26.823 A 21.06 21.06 0 0 1 351.758 23.56 A 25.58 25.58 0 0 1 360.425 20.706 A 33.16 33.16 0 0 1 365.283 20.361 A 33.12 33.12 0 0 1 371.504 20.917 A 24.068 24.068 0 0 1 378.32 23.267 A 20.17 20.17 0 0 1 386.768 31.689 Q 389.572 36.884 389.736 44.242 A 41.406 41.406 0 0 1 389.746 45.166 Z M 266.785 54.649 A 43.58 43.58 0 0 0 267.188 48.584 A 47.324 47.324 0 0 0 267.176 47.529 Q 266.989 39.133 263.794 33.203 A 27.625 27.625 0 0 0 263.579 32.812 A 23.109 23.109 0 0 0 254.468 23.633 A 25.35 25.35 0 0 0 248.525 21.285 A 30.592 30.592 0 0 0 240.869 20.361 A 35.395 35.395 0 0 0 234.543 20.901 A 25.846 25.846 0 0 0 226.66 23.633 A 22.116 22.116 0 0 0 217.48 33.203 A 24.83 24.83 0 0 0 216.803 34.64 Q 214.258 40.513 214.258 48.584 A 41.727 41.727 0 0 0 214.64 54.362 A 30.82 30.82 0 0 0 216.187 60.693 Q 218.115 65.967 221.655 69.604 A 23.114 23.114 0 0 0 230.005 75.098 A 26.53 26.53 0 0 0 233.827 76.246 A 31.166 31.166 0 0 0 240.576 76.953 Q 246.729 76.953 251.636 75.098 Q 256.543 73.242 260.034 69.604 A 22.206 22.206 0 0 0 262.508 66.513 A 25.665 25.665 0 0 0 265.356 60.693 A 31.967 31.967 0 0 0 266.785 54.649 Z M 229.443 48.584 Q 229.443 53.955 230.615 57.617 A 13.513 13.513 0 0 0 231.732 60.203 Q 232.76 62.004 234.277 63.135 Q 236.768 64.99 240.771 64.99 Q 244.727 64.99 247.192 63.135 A 9.289 9.289 0 0 0 249.656 60.294 Q 250.34 59.105 250.806 57.617 A 22.569 22.569 0 0 0 251.549 54.36 Q 251.814 52.662 251.905 50.705 A 45.57 45.57 0 0 0 251.953 48.584 A 42.338 42.338 0 0 0 251.798 44.851 Q 251.532 41.846 250.806 39.575 A 12.841 12.841 0 0 0 249.678 36.998 A 9.09 9.09 0 0 0 247.168 34.18 Q 244.893 32.529 241.355 32.387 A 16.902 16.902 0 0 0 240.674 32.373 A 13.503 13.503 0 0 0 237.337 32.759 A 8.547 8.547 0 0 0 232.104 36.426 A 13.502 13.502 0 0 0 230.535 39.862 Q 229.514 43.164 229.448 47.922 A 47.867 47.867 0 0 0 229.443 48.584 Z M 313.281 50.488 L 313.281 48.877 Q 313.281 40.918 310.84 36.694 Q 308.398 32.471 301.758 32.471 A 9.096 9.096 0 0 0 297.745 33.335 Q 295.57 34.387 294.043 36.719 A 14.608 14.608 0 0 0 292.32 40.522 Q 291.26 44.032 291.26 48.975 A 36.504 36.504 0 0 0 291.507 53.381 Q 292.072 58.014 293.928 60.829 A 10.798 10.798 0 0 0 294.067 61.035 A 8.911 8.911 0 0 0 300.456 64.989 A 11.726 11.726 0 0 0 302.002 65.088 Q 305.843 65.088 308.263 63.647 A 7.485 7.485 0 0 0 310.62 61.45 A 12.257 12.257 0 0 0 312.122 58.359 Q 313.12 55.382 313.265 51.078 A 42.647 42.647 0 0 0 313.281 50.488 Z M 354.883 42.48 L 375.781 42.48 A 17.059 17.059 0 0 0 375.458 39.343 A 13.35 13.35 0 0 0 374.585 36.572 A 9.386 9.386 0 0 0 371.167 32.471 Q 369.06 31.066 365.881 30.965 A 15.72 15.72 0 0 0 365.381 30.957 Q 361.035 30.957 358.179 33.74 Q 356 35.863 355.227 39.832 A 22.569 22.569 0 0 0 354.883 42.48 Z" vector-effect="non-scaling-stroke"/></g></svg>